<svg width="34" height="34" viewBox="0 0 34 34" fill="none" xmlns="http://www.w3.org/2000/svg">
<g clip-path="url(#clip0)">
<path d="M15.918 13.777H11.322V17.865H15.918V13.777Z" fill="#555555"/>
<path d="M22.053 13.777H17.458V17.865H22.053V13.777Z" fill="#555555"/>
<path d="M23.591 17.865H28.187V13.777H23.591V17.865ZM24.591 14.777H27.187V16.865H24.591V14.777Z" fill="#555555"/>
<path d="M9.78301 19.234H5.18701V23.32H9.78301V19.234Z" fill="#555555"/>
<path d="M15.918 19.234H11.322V23.32H15.918V19.234Z" fill="#555555"/>
<path d="M22.053 19.234H17.458V23.32H22.053V19.234Z" fill="#555555"/>
<path d="M23.591 23.32H28.187V19.234H23.591V23.32ZM24.591 20.234H27.187V22.32H24.591V20.234Z" fill="#555555"/>
<path d="M9.78301 24.691H5.18701V28.777H9.78301V24.691Z" fill="#555555"/>
<path d="M15.918 24.691H11.322V28.777H15.918V24.691Z" fill="#555555"/>
<path d="M22.053 24.691H17.458V28.777H22.053V24.691Z" fill="#555555"/>
<path d="M23.591 28.777H28.187V24.691H23.591V28.777ZM24.591 25.691H27.187V27.777H24.591V25.691Z" fill="#555555"/>
<path d="M27.96 1.375H27.278V1C27.278 0.448 26.831 0 26.278 0C25.726 0 25.278 0.448 25.278 1V1.375H23.441V1C23.441 0.448 22.993 0 22.441 0C21.889 0 21.441 0.448 21.441 1V1.375H19.604V1C19.604 0.448 19.157 0 18.604 0C18.052 0 17.604 0.448 17.604 1V1.375H15.767V1C15.767 0.448 15.319 0 14.767 0C14.215 0 13.767 0.448 13.767 1V1.375H11.93V1C11.93 0.448 11.482 0 10.93 0C10.378 0 9.93001 0.448 9.93001 1V1.375H8.09401V1C8.09401 0.448 7.64601 0 7.09401 0C6.54201 0 6.09401 0.448 6.09401 1V1.375H5.41201C2.80701 1.375 0.687012 3.495 0.687012 6.101V28.648C0.687012 31.253 2.80701 33.375 5.41401 33.375H27.96C30.566 33.375 32.688 31.255 32.688 28.648V6.101C32.687 3.495 30.567 1.375 27.96 1.375ZM25.78 1C25.78 0.724 26.004 0.5 26.28 0.5C26.556 0.5 26.78 0.724 26.78 1V7.482C26.78 7.758 26.556 7.982 26.28 7.982C26.004 7.982 25.78 7.758 25.78 7.482V1ZM21.943 1C21.943 0.724 22.168 0.5 22.443 0.5C22.719 0.5 22.943 0.724 22.943 1V7.482C22.943 7.758 22.719 7.982 22.443 7.982C22.168 7.982 21.943 7.758 21.943 7.482V1ZM18.106 1C18.106 0.724 18.33 0.5 18.606 0.5C18.882 0.5 19.106 0.724 19.106 1V7.482C19.106 7.758 18.882 7.982 18.606 7.982C18.33 7.982 18.106 7.758 18.106 7.482V1ZM14.269 1C14.269 0.724 14.493 0.5 14.769 0.5C15.045 0.5 15.269 0.724 15.269 1V7.482C15.269 7.758 15.045 7.982 14.769 7.982C14.493 7.982 14.269 7.758 14.269 7.482V1ZM10.432 1C10.432 0.724 10.656 0.5 10.932 0.5C11.208 0.5 11.432 0.724 11.432 1V7.482C11.432 7.758 11.208 7.982 10.932 7.982C10.656 7.982 10.432 7.758 10.432 7.482V1ZM6.59501 1C6.59501 0.724 6.81901 0.5 7.09501 0.5C7.37101 0.5 7.59501 0.724 7.59501 1V7.482C7.59501 7.758 7.37101 7.982 7.09501 7.982C6.81901 7.982 6.59501 7.758 6.59501 7.482V1ZM30.279 28.648C30.279 29.925 29.239 30.965 27.961 30.965H5.41401C4.13601 30.965 3.09601 29.925 3.09601 28.648V6.101C3.09601 4.823 4.13601 3.783 5.41401 3.783H6.09601V6.296C5.75701 6.582 5.53601 7.005 5.53601 7.483C5.53601 8.343 6.23501 9.043 7.09601 9.043C7.95701 9.043 8.65601 8.344 8.65601 7.483C8.65601 7.005 8.43501 6.583 8.09601 6.296V3.783H9.93301V6.296C9.59401 6.582 9.37301 7.005 9.37301 7.483C9.37301 8.343 10.072 9.043 10.933 9.043C11.794 9.043 12.493 8.344 12.493 7.483C12.493 7.005 12.272 6.583 11.933 6.296V3.783H13.77V6.296C13.431 6.582 13.21 7.005 13.21 7.483C13.21 8.343 13.909 9.043 14.77 9.043C15.631 9.043 16.33 8.344 16.33 7.483C16.33 7.005 16.109 6.583 15.77 6.296V3.783H17.607V6.296C17.268 6.582 17.047 7.005 17.047 7.483C17.047 8.343 17.746 9.043 18.607 9.043C19.468 9.043 20.168 8.344 20.168 7.483C20.168 7.005 19.946 6.583 19.607 6.296V3.783H21.444V6.296C21.105 6.582 20.884 7.005 20.884 7.483C20.884 8.343 21.583 9.043 22.444 9.043C23.305 9.043 24.004 8.344 24.004 7.483C24.004 7.005 23.783 6.583 23.444 6.296V3.783H25.281V6.296C24.942 6.582 24.721 7.005 24.721 7.483C24.721 8.343 25.419 9.043 26.281 9.043C27.143 9.043 27.842 8.344 27.842 7.483C27.842 7.005 27.621 6.583 27.281 6.296V3.783H27.963C29.24 3.783 30.28 4.823 30.28 6.101L30.279 28.648Z" fill="#555555"/>
</g>
<defs>
<clipPath id="clip0">
<rect width="33.375" height="33.375" fill="white"/>
</clipPath>
</defs>
</svg>
